<svg xmlns="http://www.w3.org/2000/svg" viewBox="0 0 200 200" width="200" height="200">
  <g stroke="#EEECE3" fill="none" stroke-linecap="round" stroke-linejoin="round">

    <!-- Outer circle — hand-drawn, slightly wobbly -->
    <path stroke-width="1.4" opacity="0.9"
      d="M100,7
         C128,6 150,14 164,28
         C179,43 194,63 194,100
         C194,137 179,158 163,172
         C148,186 128,194 100,194
         C72,194 51,186 36,172
         C20,158 6,136 6,100
         C6,64 20,43 36,28
         C51,13 72,8 100,7 Z"
    />

    <!-- Tick marks around ring — irregular lengths for hand-drawn feel -->
    <g stroke-width="1" opacity="0.55">
      <line x1="100" y1="9"  x2="100" y2="21"  transform="rotate(0   100 100)"/>
      <line x1="100" y1="9"  x2="100" y2="17"  transform="rotate(12  100 100)"/>
      <line x1="100" y1="9"  x2="100" y2="19"  transform="rotate(24  100 100)"/>
      <line x1="100" y1="9"  x2="100" y2="16"  transform="rotate(36  100 100)"/>
      <line x1="100" y1="9"  x2="100" y2="20"  transform="rotate(48  100 100)"/>
      <line x1="100" y1="9"  x2="100" y2="17"  transform="rotate(60  100 100)"/>
      <line x1="100" y1="9"  x2="100" y2="21"  transform="rotate(72  100 100)"/>
      <line x1="100" y1="9"  x2="100" y2="16"  transform="rotate(84  100 100)"/>
      <line x1="100" y1="9"  x2="100" y2="19"  transform="rotate(96  100 100)"/>
      <line x1="100" y1="9"  x2="100" y2="17"  transform="rotate(108 100 100)"/>
      <line x1="100" y1="9"  x2="100" y2="21"  transform="rotate(120 100 100)"/>
      <line x1="100" y1="9"  x2="100" y2="16"  transform="rotate(132 100 100)"/>
      <line x1="100" y1="9"  x2="100" y2="18"  transform="rotate(144 100 100)"/>
      <line x1="100" y1="9"  x2="100" y2="17"  transform="rotate(156 100 100)"/>
      <line x1="100" y1="9"  x2="100" y2="21"  transform="rotate(168 100 100)"/>
      <line x1="100" y1="9"  x2="100" y2="16"  transform="rotate(180 100 100)"/>
      <line x1="100" y1="9"  x2="100" y2="19"  transform="rotate(192 100 100)"/>
      <line x1="100" y1="9"  x2="100" y2="17"  transform="rotate(204 100 100)"/>
      <line x1="100" y1="9"  x2="100" y2="21"  transform="rotate(216 100 100)"/>
      <line x1="100" y1="9"  x2="100" y2="16"  transform="rotate(228 100 100)"/>
      <line x1="100" y1="9"  x2="100" y2="18"  transform="rotate(240 100 100)"/>
      <line x1="100" y1="9"  x2="100" y2="17"  transform="rotate(252 100 100)"/>
      <line x1="100" y1="9"  x2="100" y2="21"  transform="rotate(264 100 100)"/>
      <line x1="100" y1="9"  x2="100" y2="16"  transform="rotate(276 100 100)"/>
      <line x1="100" y1="9"  x2="100" y2="19"  transform="rotate(288 100 100)"/>
      <line x1="100" y1="9"  x2="100" y2="17"  transform="rotate(300 100 100)"/>
      <line x1="100" y1="9"  x2="100" y2="21"  transform="rotate(312 100 100)"/>
      <line x1="100" y1="9"  x2="100" y2="16"  transform="rotate(324 100 100)"/>
      <line x1="100" y1="9"  x2="100" y2="18"  transform="rotate(336 100 100)"/>
      <line x1="100" y1="9"  x2="100" y2="17"  transform="rotate(348 100 100)"/>
    </g>

    <!-- Inner circle — hand-drawn -->
    <path stroke-width="0.9" opacity="0.5"
      d="M100,24
         C120,23 138,30 150,42
         C163,55 176,72 176,100
         C176,128 163,146 150,158
         C137,170 120,177 100,177
         C80,177 62,170 50,158
         C37,146 24,128 24,100
         C24,72 37,55 50,42
         C62,30 80,25 100,24 Z"
    />

    <!-- Left pillar — hand-drawn -->
    <path stroke-width="2.2"
      d="M 67,138 C 66,120 65,102 66,82"/>
    <!-- Right pillar — hand-drawn -->
    <path stroke-width="2.2"
      d="M 133,138 C 134,120 135,102 134,82"/>

    <!-- Arch curve — wobbly hand-drawn arc -->
    <path stroke-width="2.4"
      d="M 66,83 C 67,68 72,57 82,50 C 90,44 95,42 100,42 C 105,42 110,44 118,50 C 128,57 133,68 134,83"/>

    <!-- Keystone at top -->
    <path stroke-width="1.5"
      d="M 96,42 C 97,38 99,35 100,34 C 101,35 103,38 104,42"/>

    <!-- Step base -->
    <path stroke-width="1.8"
      d="M 62,138 C 75,137 90,137 100,138 C 110,137 125,137 138,138"/>
    <path stroke-width="1.4" opacity="0.6"
      d="M 58,142 C 72,141 88,141 100,142 C 112,141 128,141 142,142"/>

    <!-- Inner arch detail -->
    <path stroke-width="0.9" opacity="0.45"
      d="M 76,84 C 77,72 83,63 90,58 C 94,55 97,54 100,54 C 103,54 106,55 110,58 C 117,63 123,72 124,84"/>

  </g>

  <!-- "I" — large, italic, prominent -->
  <text
    x="100"
    y="133"
    font-family="Cormorant Garamond, Georgia, serif"
    font-size="48"
    font-weight="400"
    fill="#EEECE3"
    text-anchor="middle"
    font-style="italic"
    letter-spacing="2"
  >I</text>

</svg>