<svg xmlns="http://www.w3.org/2000/svg"
     viewBox="0 0 516 374">

  <defs>
    <linearGradient id="goldGradient"
        x1="-100%" y1="0%"
        x2="100%" y2="0%">

      <stop offset="0%" stop-color="#8a6a00"/>
      <stop offset="25%" stop-color="#ffd700"/>
      <stop offset="50%" stop-color="#fff8dc"/>
      <stop offset="75%" stop-color="#ffd700"/>
      <stop offset="100%" stop-color="#8a6a00"/>

      <animate attributeName="x1"
               values="-100%;100%"
               dur="3s"
               repeatCount="indefinite"/>

      <animate attributeName="x2"
               values="0%;200%"
               dur="3s"
               repeatCount="indefinite"/>
    </linearGradient>
  </defs>

  <path d="m90.4 52.64c-2.26 2.08-5.06 4.69-6.23 5.82-1.17 1.12-2.14 2.83-2.15 3.79-0.01 0.96-0.47 1.75-1.02 1.75-0.55 0-0.99 1.24-0.98 2.75 0.01 1.51-0.4 3.2-0.9 3.75-0.5 0.55-1.24 3.03-1.63 5.5-0.39 2.47-0.71 9-0.71 14.5 0 5.5 0.32 13.38 0.71 17.5 0.39 4.12 1.12 7.95 1.63 8.5 0.5 0.55 0.91 3.14 0.9 5.75-0.01 2.61 0.43 4.97 0.98 5.25 0.55 0.28 1 2.97 1 6 0 3.03 0.45 5.72 1 6 0.55 0.28 1 2.07 1 4 0 1.93 0.45 3.72 1 4 0.55 0.28 1 2.07 1 4 0 1.93 0.45 3.72 1 4 0.55 0.28 1 2.3 1 4.5 0 2.2 0.45 4.22 1 4.5 0.55 0.28 1 2.3 1 4.5 0 2.2 0.45 4.22 1 4.5 0.55 0.28 1 1.62 1 3 0 1.37 0.45 2.72 1 3 0.55 0.28 1 1.85 1 3.5 0 1.65 0.45 3.22 1 3.5 0.55 0.28 1 2.07 1 4 0 1.93 0.45 3.72 1 4 0.55 0.28 1 1.62 1 3 0 1.37 0.51 3.74 1.12 5.25 0.62 1.51 1.49 3.65 1.94 4.75 0.44 1.1 1.34 3.8 2 6 0.65 2.2 1.58 4.79 2.06 5.75 0.49 0.96 0.88 2.65 0.88 3.75 0 1.1 0.45 2.22 1 2.5 0.55 0.28 1 1.62 1 3 0 1.37 0.45 2.72 1 3 0.55 0.28 1 1.4 1 2.5 0 1.1 0.45 2 1 2 0.55 0 1 1.12 1 2.5 0 1.37 0.45 2.72 1 3 0.55 0.28 1 1.4 1 2.5 0 1.1 0.45 2.9 1 4 0.55 1.1 1.45 2.9 2 4 0.55 1.1 1 2.68 1 3.5 0 0.82 0.45 1.5 1 1.5 0.55 0 1 0.68 1 1.5 0 0.82 0.4 2.29 0.88 3.25 0.49 0.96 1.44 3.1 2.12 4.75 0.68 1.65 1.7 3.9 2.28 5 0.57 1.1 1.87 3.46 2.88 5.25 1.01 1.79 1.84 3.93 1.84 4.75 0 0.82 0.45 1.5 1 1.5 0.55 0 1 0.68 1 1.5 0 0.82 2.76 5.66 6.14 10.75 3.37 5.09 8.1 11.16 10.5 13.5 2.4 2.34 6.72 5.48 9.61 6.98 4.42 2.3 6.51 2.73 13.25 2.75 6.34 0.02 9.04-0.47 13-2.33 2.75-1.3 7.7-3.99 11-5.98 3.3-1.99 10.72-7.88 16.5-13.08 5.78-5.2 11.66-10.61 13.07-12.02 1.41-1.41 4.11-3.97 6-5.68 1.89-1.71 5.97-5.76 9.08-9 3.1-3.24 7.49-7.58 9.75-9.64 2.25-2.06 4.11-4.31 4.12-5 0.02-0.69-2.01-3.39-4.5-6-2.48-2.61-5.76-5.03-7.27-5.37-2.3-0.52-3.35 0.02-6.38 3.25-1.99 2.13-8.29 8.14-13.99 13.37-5.71 5.23-11.73 10.89-13.38 12.58-1.65 1.7-6.6 5.79-11 9.09-4.4 3.31-9.57 6.72-11.5 7.59-1.93 0.87-5.07 2.14-7 2.82-2.85 1.02-4.15 1-7-0.11-1.93-0.75-4.76-2.28-6.29-3.41-1.54-1.14-4.8-5.1-7.25-8.81-2.45-3.71-4.46-7.43-4.46-8.25 0-0.82-0.45-1.5-1-1.5-0.55 0-1.01-0.79-1.02-1.75-0.01-0.96-0.9-2.87-1.98-4.25-1.08-1.37-1.97-3.06-1.98-3.75-0.01-0.69-0.42-2.04-0.9-3-0.49-0.96-1.45-3.1-2.14-4.75-0.68-1.65-1.64-4.01-2.11-5.25-0.48-1.24-1.37-3.49-1.99-5-0.61-1.51-1.51-3.54-2-4.5-0.48-0.96-0.88-2.65-0.88-3.75 0-1.1-0.45-2-1-2-0.55 0-1-0.9-1-2 0-1.1-0.45-2.9-1-4-0.55-1.1-1.45-2.9-2-4-0.55-1.1-1-3.12-1-4.5 0-1.37-0.45-2.72-1-3-0.55-0.28-1-1.85-1-3.5 0-1.65-0.45-3-1-3-0.55 0-1-1.35-1-3 0-1.65-0.45-3.22-1-3.5-0.55-0.28-1-1.85-1-3.5 0-1.65-0.45-3.22-1-3.5-0.55-0.28-1-1.62-1-3 0-1.37-0.45-2.72-1-3-0.55-0.28-1-2.07-1-4 0-1.93-0.45-3.72-1-4-0.55-0.28-1-2.07-1-4 0-1.93-0.45-3.72-1-4-0.55-0.28-1-2.07-1-4 0-1.93-0.45-3.72-1-4-0.55-0.28-1-2.07-1-4 0-1.93-0.45-3.72-1-4-0.55-0.28-1-2.3-1-4.5 0-2.2-0.45-4.22-1-4.5-0.55-0.28-1-3.2-1-6.5 0-3.3-0.45-6.22-1-6.5-0.55-0.28-1-2.97-1-6 0-3.03-0.34-5.68-0.75-5.9-0.41-0.21-1.04-4.6-1.39-9.75-0.35-5.14-0.35-11.78 0-14.76 0.49-4.13 1.17-5.72 2.89-6.75 2-1.19 2.9-1.01 8 1.57 3.19 1.61 9.32 6.33 13.75 10.58 4.4 4.22 16.02 15.39 25.83 24.84 9.8 9.44 23.53 22.93 30.5 29.98 6.97 7.04 35.64 35.84 63.72 64 28.08 28.15 57.78 57.58 66 65.38 8.22 7.81 16.97 15.73 19.45 17.6 2.48 1.87 7.2 4.82 10.5 6.55 3.3 1.74 6.79 3.16 7.75 3.16 0.96 0 1.98 0.45 2.25 1 0.28 0.56 4.67 1 10 1 8.32 0 10.28-0.35 15.75-2.85 4.08-1.87 8.26-4.91 12.03-8.75 3.18-3.25 5.77-6.46 5.75-7.15-0.02-0.69 0.42-1.25 0.97-1.25 0.55 0 1-0.68 1-1.5 0-0.82 0.45-1.5 1-1.5 0.55 0 1-0.68 1-1.5 0-0.82 0.45-1.5 1-1.5 0.55 0 1-0.68 1-1.5 0-0.82 0.45-1.5 1-1.5 0.55 0 1-0.68 1-1.5 0-0.82 0.56-2.51 1.25-3.75 0.69-1.24 1.48-2.48 1.77-2.75 0.29-0.27 2.03-3.65 3.87-7.5 1.85-3.85 3.69-7.9 4.11-9 0.41-1.1 1.75-4.25 2.98-7 1.23-2.75 2.64-5.79 3.13-6.75 0.49-0.96 0.89-2.43 0.89-3.25 0-0.82 0.4-2.29 0.88-3.25 0.49-0.96 1.45-3.1 2.14-4.75 0.68-1.65 1.69-4.12 2.23-5.5 0.54-1.37 1.38-3.29 1.87-4.25 0.48-0.96 0.88-2.87 0.88-4.25 0-1.37 0.45-2.72 1-3 0.55-0.28 1-1.62 1-3 0-1.37 0.45-2.72 1-3 0.55-0.28 1-1.62 1-3 0-1.37 0.45-2.72 1-3 0.55-0.28 1-1.62 1-3 0-1.37 0.45-2.72 1-3 0.55-0.28 1-2.07 1-4 0-1.93 0.45-3.5 1-3.5 0.55 0 1-1.35 1-3 0-1.65 0.45-3 1-3 0.55 0 1-1.57 1-3.5 0-1.93 0.45-3.72 1-4 0.55-0.28 1-1.85 1-3.5 0-1.65 0.45-3.22 1-3.5 0.55-0.28 1-2.07 1-4 0-1.93 0.45-3.72 1-4 0.55-0.28 1-1.85 1-3.5 0-1.65 0.45-3.22 1-3.5 0.55-0.28 1-2.07 1-4 0-1.93 0.45-3.72 1-4 0.55-0.28 1-2.3 1-4.5 0-2.2 0.45-4.22 1-4.5 0.55-0.28 1-2.53 1-5 0-2.47 0.45-4.72 1-5 0.55-0.28 1-2.3 1-4.5 0-2.2 0.45-4.22 1-4.5 0.55-0.28 1-2.97 1-6 0-3.03 0.34-5.68 0.75-5.9 0.41-0.21 1.13-4.83 1.6-10.25 0.47-5.42 0.86-11.65 0.86-13.85 0-2.2-0.29-6.47-0.65-9.5-0.35-3.03-1.15-7.3-1.78-9.5-0.62-2.2-1.51-4.45-1.97-5-0.46-0.55-0.84-1.56-0.83-2.25 0.01-0.69-0.77-2.26-1.73-3.5-0.96-1.23-3.77-4.17-6.25-6.53-4.49-4.29-4.51-4.29-12-4.25-4.67 0.03-8.63 0.62-10.5 1.57-1.65 0.84-3.34 1.51-3.75 1.49-0.41-0.02-4.46 2.51-9 5.61-4.54 3.1-10.65 7.71-13.58 10.25-2.93 2.53-15.75 15.05-28.5 27.81-12.74 12.76-25.65 26.01-28.67 29.44-3.02 3.43-7.98 8.79-11 11.92-3.02 3.13-8.74 9.23-12.69 13.56-3.96 4.34-8.68 9.65-10.5 11.82-1.82 2.17-5.69 6.45-8.59 9.5-2.91 3.06-5.27 5.67-5.25 5.81 0.02 0.14-1.66 2.11-3.72 4.39-2.06 2.28-4.31 4.75-5 5.5-0.69 0.75-1.25 1.81-1.25 2.36 0 0.55-0.45 1-1 1-0.55 0-1 0.68-1 1.5 0 0.82 0.45 1.5 1 1.5 0.55 0 1 0.45 1 1 0 0.55 1.8 2.8 4 5 2.31 2.31 4.95 4 6.25 3.99 1.56 0 6.36-4.19 15.75-13.75 7.43-7.56 20.25-20.09 28.5-27.83 8.25-7.75 17.93-16.7 21.5-19.9 3.57-3.21 8.07-7.29 10-9.07 1.93-1.78 8.23-7.47 14-12.63 5.77-5.16 15-13.05 20.5-17.52 5.5-4.47 12.02-9 14.5-10.06 3.05-1.32 5.14-1.66 6.5-1.08 1.1 0.47 2.59 1.86 3.3 3.1 0.95 1.64 1.18 5.39 0.84 13.75-0.26 6.33-0.98 14.65-1.59 18.5-0.62 3.85-1.37 9.25-1.68 12-0.3 2.75-0.97 5.45-1.48 6-0.51 0.55-0.92 2.69-0.91 4.75 0.01 2.06-0.43 3.97-0.98 4.25-0.55 0.28-1.21 2.19-1.48 4.25-0.26 2.06-0.71 5.66-1 8-0.28 2.34-0.97 4.47-1.52 4.75-0.55 0.28-1 2.07-1 4 0 1.93-0.45 3.72-1 4-0.55 0.28-1 1.85-1 3.5 0 1.65-0.45 3.22-1 3.5-0.55 0.28-1 1.85-1 3.5 0 1.65-0.45 3.22-1 3.5-0.55 0.28-1 1.85-1 3.5 0 1.65-0.45 3.22-1 3.5-0.55 0.28-1 1.63-1 3 0 1.38-0.45 2.72-1 3-0.55 0.28-1 1.85-1 3.5 0 1.65-0.45 3.22-1 3.5-0.55 0.28-1 1.4-1 2.5 0 1.1-0.45 2.9-1 4-0.55 1.1-1.45 2.9-2 4-0.55 1.1-1 2.9-1 4 0 1.1-0.45 2.22-1 2.5-0.55 0.28-1 1.4-1 2.5 0 1.1-0.4 2.79-0.88 3.75-0.49 0.96-1.44 3.1-2.12 4.75-0.68 1.65-1.63 3.79-2.12 4.75-0.48 0.96-0.88 2.43-0.88 3.25 0 0.82-0.96 3.41-2.14 5.75-1.18 2.34-2.47 5.15-2.88 6.25-0.4 1.1-1.8 4.25-3.1 7-1.31 2.75-2.72 5.11-3.13 5.25-0.41 0.14-0.75 0.7-0.75 1.25 0 0.55-1.45 3.14-3.22 5.75-1.77 2.61-4.36 6.03-5.75 7.59-1.39 1.57-4.1 3.49-6.03 4.28-1.93 0.78-5.07 1.41-7 1.38-1.93-0.03-6.43-1.5-10-3.26-5.54-2.74-10.18-6.91-31.5-28.33-13.75-13.81-26.95-27.32-29.34-30.01-2.38-2.7-8-8.93-12.5-13.85-4.49-4.92-9.3-10.1-10.7-11.5-1.39-1.4-5.38-5.7-8.86-9.55-3.47-3.85-9.31-10.18-12.96-14.07-3.65-3.89-7.99-8.68-9.64-10.63-1.65-1.96-6.29-7.1-10.31-11.43-4.03-4.33-11.45-12.34-16.5-17.81-5.06-5.46-14.59-15.55-21.19-22.42-6.6-6.86-14.47-14.91-17.5-17.88-3.03-2.97-10.68-10.44-17-16.6-6.32-6.15-13.97-13.39-17-16.07-3.03-2.68-8.2-6.79-11.5-9.14-3.3-2.35-9.37-5.97-13.5-8.05-6.06-3.06-8.84-3.85-14.5-4.15-6.91-0.37-7.05-0.32-11.1 3.39z"
        fill="url(#goldGradient)"/>
</svg>
